<mxfile host="www.draw.io" modified="2019-11-14T15:56:34.735Z" agent="Mozilla/5.0 (Windows NT 10.0; Win64; x64) AppleWebKit/537.36 (KHTML, like Gecko) Chrome/78.0.3904.97 Safari/537.36" etag="mHOrr7FdqwFo6ZVAqrNK" version="12.2.6" type="github" pages="1">
  <diagram name="Page-1" id="b5b7bab2-c9e2-2cf4-8b2a-24fd1a2a6d21">
    <mxGraphModel dx="854" dy="446" grid="1" gridSize="10" guides="1" tooltips="1" connect="1" arrows="1" fold="1" page="1" pageScale="1" pageWidth="827" pageHeight="1169" background="#ffffff" math="0" shadow="0">
      <root>
        <mxCell id="0"/>
        <mxCell id="1" parent="0"/>
        <mxCell id="6e0c8c40b5770093-72" value="" style="shape=folder;fontStyle=1;spacingTop=10;tabWidth=194;tabHeight=22;tabPosition=left;html=1;rounded=0;shadow=0;comic=0;labelBackgroundColor=none;strokeWidth=1;fillColor=none;fontFamily=Verdana;fontSize=10;align=center;" parent="1" vertex="1">
          <mxGeometry x="310" y="113.5" width="1001" height="940" as="geometry"/>
        </mxCell>
        <mxCell id="6e0c8c40b5770093-73" value="Sistem Informasi Keunangan" style="text;html=1;align=left;verticalAlign=top;spacingTop=-4;fontSize=10;fontFamily=Verdana" parent="1" vertex="1">
          <mxGeometry x="327.5" y="114.5" width="130" height="20" as="geometry"/>
        </mxCell>
        <mxCell id="sN14LYOyGVV7ZbcZTPVy-3" value="]Mahasiswa&lt;br&gt;" style="shape=umlActor;verticalLabelPosition=bottom;labelBackgroundColor=#ffffff;verticalAlign=top;html=1;outlineConnect=0;" vertex="1" parent="1">
          <mxGeometry x="412" y="443.5" width="70" height="140" as="geometry"/>
        </mxCell>
        <mxCell id="sN14LYOyGVV7ZbcZTPVy-20" value="" style="endArrow=classic;html=1;" edge="1" parent="1">
          <mxGeometry width="50" height="50" relative="1" as="geometry">
            <mxPoint x="530" y="493.5" as="sourcePoint"/>
            <mxPoint x="580" y="443.5" as="targetPoint"/>
          </mxGeometry>
        </mxCell>
        <mxCell id="sN14LYOyGVV7ZbcZTPVy-21" value="" style="endArrow=classic;html=1;" edge="1" parent="1">
          <mxGeometry width="50" height="50" relative="1" as="geometry">
            <mxPoint x="530" y="580" as="sourcePoint"/>
            <mxPoint x="580" y="530" as="targetPoint"/>
          </mxGeometry>
        </mxCell>
      </root>
    </mxGraphModel>
  </diagram>
</mxfile>
